<?xml version="1.0" encoding="utf-8"?>
<!-- Generator: Adobe Illustrator 23.0.3, SVG Export Plug-In . SVG Version: 6.00 Build 0)  -->
<svg version="1.1" id="Layer_1" xmlns="http://www.w3.org/2000/svg" xmlns:xlink="http://www.w3.org/1999/xlink" x="0px" y="0px"
	 viewBox="0 0 633 600" style="enable-background:new 0 0 633 600;" xml:space="preserve">
<style type="text/css">
	.st0{fill:#00CCBC;}
</style>
<path class="st0" d="M60.9,598.4h20.5L78,582.6v-95.1H58.4v43.2c-5.9-6.8-14-10.9-23.6-10.9C15.2,519.8,0,536,0,559.9
	C0,583.8,15.2,600,34.8,600c9.6,0,18-4,24.3-11.2L60.9,598.4L60.9,598.4z M449.6,541.2c4,0,7.8,0.9,11.2,3.4l9.3-21.1
	c-4.4-2.8-9.3-3.7-14.3-3.7c-9,0-16.2,4-21.1,11.5l-2.2-9.6h-19.9l3.1,14.9v61.9h19.6v-49.1C438.1,544.3,443,541.2,449.6,541.2
	L449.6,541.2L449.6,541.2L449.6,541.2z M507.1,579.2c-11.5,0-19.9-7.5-19.9-19.3s8.4-19.3,19.9-19.3s19.9,7.5,19.9,19.3
	C527,571.7,518.6,579.2,507.1,579.2L507.1,579.2z M19,559.9c0-11.8,8.4-19.3,19.9-19.3c11.5,0,19.9,7.5,19.9,19.3
	s-8.4,19.3-19.9,19.3S19,571.7,19,559.9z M594.1,579.2c-11.5,0-19.9-7.5-19.9-19.3s8.4-19.3,19.9-19.3c11.5,0,19.9,7.5,19.9,19.3
	S605.6,579.2,594.1,579.2z M129.3,539.4c10.3,0,16.8,4.7,19,13.7h-37.9C112.5,544,119.1,539.4,129.3,539.4L129.3,539.4z
	 M364.4,539.4c10.3,0,16.8,4.7,19,13.7h-37.9C347.6,544,354.4,539.4,364.4,539.4L364.4,539.4z M268.3,598.4H300l20.5-76.8h-21.5
	l-14.9,62.2l-15.2-62.2h-21.1L268.3,598.4L268.3,598.4L268.3,598.4z M217.6,598.4h19.6v-76.8h-19.6V598.4z M132.1,599.7
	c10.9,0,21.8-3.1,30.8-8.7l-7.5-17.1c-7.2,3.7-14.9,5.9-23,5.9c-10.3,0-17.7-4-20.8-11.5H167c0.6-2.8,0.9-5.6,0.9-9
	c0-23.9-16.5-39.8-38.6-39.8s-38.6,16.2-38.6,40.1C91.1,584.1,107.3,599.7,132.1,599.7L132.1,599.7L132.1,599.7z M633,559.9
	c0-23.9-16.5-40.1-38.9-40.1c-22.4,0-38.9,16.2-38.9,40.1c0,23.9,16.5,40.1,38.9,40.1C616.5,600,633,583.8,633,559.9L633,559.9z
	 M367.2,600c10.9,0,21.8-3.1,30.8-8.7l-7.5-17.1c-7.2,3.7-14.9,5.9-23,5.9c-10.3,0-17.7-4-20.8-11.5H402c0.6-2.8,0.9-5.6,0.9-9
	c0-23.9-16.5-39.8-38.6-39.8c-22.1,0-38.6,16.2-38.6,40.1C325.8,584.5,342,600,367.2,600L367.2,600L367.2,600z M507.1,600
	c22.4,0,38.9-16.2,38.9-40.1c0-23.9-16.5-40.1-38.9-40.1c-22.4,0-38.9,16.2-38.9,40.1C468.2,583.8,484.7,600,507.1,600L507.1,600z
	 M180.6,598.4h19.6v-111h-19.6V598.4L180.6,598.4L180.6,598.4z M227.6,510.8c6.8,0,12.1-5.3,12.1-12.4s-5.3-12.4-12.1-12.4
	c-7.2,0-12.4,5.3-12.4,12.4S220.4,510.8,227.6,510.8L227.6,510.8L227.6,510.8z M400.3,0l-20.9,199.5L343.3,31.4L230.4,54.7
	l36.1,168.1l-162.3,34.3l28.5,134.4L418.3,452l65.2-146l30.8-294.4L400.3,0L400.3,0L400.3,0z M310.1,289.1
	c-5.8,5.2-13.4,4.7-22.1,2.3c-8.1-2.9-11.6-12.8-8.7-24.4c2.3-8.7,13.4-10.5,18.6-10.5c2.3,0,4.1,0.6,5.8,1.2
	c4.1,1.7,10.5,5.2,11.6,11.1C317.7,276.9,315.9,283.9,310.1,289.1L310.1,289.1L310.1,289.1L310.1,289.1z M392.7,298.4
	c-4.1,7.6-15.7,8.1-26.8,2.9c-7.6-3.5-7.6-12.8-6.4-18.6c0.6-2.9,1.7-5.8,3.5-8.1c2.9-3.5,7-7.6,12.2-7.6c8.1,0,15.7,3.5,19.8,10.5
	C399.1,283.3,396.8,290.9,392.7,298.4L392.7,298.4z"/>
</svg>
